<svg width="27" height="27" viewBox="0 0 27 27" fill="none" xmlns="http://www.w3.org/2000/svg">
<path d="M11.2502 4.5H8.10022C6.8401 4.5 6.20957 4.5 5.72827 4.74524C5.30491 4.96095 4.96095 5.30491 4.74524 5.72827C4.5 6.20957 4.5 6.8401 4.5 8.10022V18.9002C4.5 20.1603 4.5 20.7901 4.74524 21.2714C4.96095 21.6947 5.30491 22.0393 5.72827 22.255C6.2091 22.5 6.83887 22.5 8.09652 22.5H18.9035C20.1611 22.5 20.79 22.5 21.2708 22.255C21.6942 22.0393 22.0393 21.6944 22.255 21.271C22.5 20.7902 22.5 20.1611 22.5 18.9035V15.75M18 5.625L11.25 12.375V15.75H14.625L21.375 9M18 5.625L21.375 2.25L24.75 5.625L21.375 9M18 5.625L21.375 9" stroke="#444444" stroke-width="1.5" stroke-linecap="round" stroke-linejoin="round"/>
</svg>
