<svg width="27" height="27" viewBox="0 0 27 27" fill="none" xmlns="http://www.w3.org/2000/svg">
<path d="M19.6875 3.9375H20.3875C22.1788 3.9375 23.0745 3.9375 23.631 4.494C24.1875 5.05049 24.1875 5.94616 24.1875 7.7375V8.4375" stroke="#444444" stroke-width="1.5" stroke-linecap="round"/>
<path d="M19.6875 23.0625H20.3875C22.1788 23.0625 23.0745 23.0625 23.631 22.506C24.1875 21.9495 24.1875 21.0538 24.1875 19.2625V18.5625" stroke="#444444" stroke-width="1.5" stroke-linecap="round"/>
<path d="M7.3125 3.9375H6.6125C4.82116 3.9375 3.92549 3.9375 3.369 4.494C2.8125 5.05049 2.8125 5.94616 2.8125 7.7375V8.4375" stroke="#444444" stroke-width="1.5" stroke-linecap="round"/>
<path d="M7.3125 23.0625H6.6125C4.82116 23.0625 3.92549 23.0625 3.369 22.506C2.8125 21.9495 2.8125 21.0538 2.8125 19.2625V18.5625" stroke="#444444" stroke-width="1.5" stroke-linecap="round"/>
<path d="M8.27082 17.8646C8.78245 17.1262 9.52967 16.4973 10.4502 16.0545C11.3707 15.6116 12.423 15.375 13.5 15.375C14.577 15.375 15.6293 15.6116 16.5498 16.0545C17.4703 16.4973 18.2176 17.1262 18.7292 17.8646" stroke="#444444" stroke-width="1.5" stroke-linecap="round"/>
<circle cx="13.5" cy="10.125" r="2.625" stroke="#444444" stroke-width="1.5" stroke-linecap="round"/>
</svg>
