<svg width="27" height="27" viewBox="0 0 27 27" fill="none" xmlns="http://www.w3.org/2000/svg">
  <path d="M13.5 0C6.04416 0 0 6.04416 0 13.5C0 20.9558 6.04416 27 13.5 27C20.9558 27 27 20.9558 27 13.5C27 6.04416 20.9558 0 13.5 0Z" fill="#444444"/>
  <path d="M13.5 13.5C15.9853 13.5 18 11.4853 18 9C18 6.51472 15.9853 4.5 13.5 4.5C11.0147 4.5 9 6.51472 9 9C9 11.4853 11.0147 13.5 13.5 13.5Z" fill="white"/>
  <path d="M6.75 22.5C6.75 18.7721 9.77208 15.75 13.5 15.75C17.2279 15.75 20.25 18.7721 20.25 22.5H6.75Z" fill="white"/>
</svg>


