<svg width="12" height="18" viewBox="0 0 12 18" fill="none" xmlns="http://www.w3.org/2000/svg">
<path d="M1.00049 4.22581C1.28515 3.40713 1.80701 2.678 2.50806 2.11882C3.20911 1.55963 4.06186 1.19251 4.97266 1.05764C5.88345 0.922765 6.81712 1.02569 7.66919 1.3549C8.52126 1.6841 9.25836 2.22694 9.80054 2.92317C10.3427 3.61941 10.6682 4.44176 10.7407 5.2998C10.8132 6.15785 10.6294 7.01773 10.2108 7.78466C9.79224 8.5516 9.1553 9.196 8.36903 9.64575C7.58276 10.0955 6.67853 10.3335 5.75635 10.3335V11.4998M5.8186 16.1667V16.2833L5.69409 16.2836V16.1667H5.8186Z" stroke="#4D79FD" stroke-width="2" stroke-linecap="round" stroke-linejoin="round"/>
</svg>
